<svg xmlns="http://www.w3.org/2000/svg" viewBox="0 0 512 512" role="img" aria-labelledby="title">
  <title id="title">Prompt.ai</title>
  <rect width="512" height="512" rx="104" fill="#f7fafc"/>
  <g fill="none" stroke-linecap="round" stroke-linejoin="round">
    <path d="M147 112v288" stroke="#155b8c" stroke-width="30"/>
    <path d="M147 112l134-5 119 73 31 117-77 75-124 49-83-21 94-166-94 67 118-124-118-65 111 196 23-201-50 127 169-54-159 54 113 138" stroke="#2d8fc7" stroke-width="10"/>
    <path d="M147 301l114-67 93 138M147 400l114-166 170 63M281 107l-40 127 159-54M230 421l31-187" stroke="#155b8c" stroke-width="9"/>
  </g>
  <g fill="#2d8fc7"><circle cx="281" cy="107" r="23"/><circle cx="400" cy="180" r="22"/><circle cx="431" cy="297" r="22"/><circle cx="354" cy="372" r="22"/><circle cx="230" cy="421" r="21"/><circle cx="241" cy="234" r="18"/></g>
  <g fill="#155b8c"><circle cx="147" cy="112" r="25"/><circle cx="147" cy="301" r="18"/><circle cx="147" cy="400" r="25"/><circle cx="261" cy="284" r="34"/></g>
</svg>
